%TF.GenerationSoftware,KiCad,Pcbnew,9.0.8*%
%TF.CreationDate,2026-03-31T20:14:32+02:00*%
%TF.ProjectId,NeowPad,4e656f77-5061-4642-9e6b-696361645f70,rev?*%
%TF.SameCoordinates,Original*%
%TF.FileFunction,Copper,L1,Top*%
%TF.FilePolarity,Positive*%
%FSLAX46Y46*%
G04 Gerber Fmt 4.6, Leading zero omitted, Abs format (unit mm)*
G04 Created by KiCad (PCBNEW 9.0.8) date 2026-03-31 20:14:32*
%MOMM*%
%LPD*%
G01*
G04 APERTURE LIST*
G04 Aperture macros list*
%AMRoundRect*
0 Rectangle with rounded corners*
0 $1 Rounding radius*
0 $2 $3 $4 $5 $6 $7 $8 $9 X,Y pos of 4 corners*
0 Add a 4 corners polygon primitive as box body*
4,1,4,$2,$3,$4,$5,$6,$7,$8,$9,$2,$3,0*
0 Add four circle primitives for the rounded corners*
1,1,$1+$1,$2,$3*
1,1,$1+$1,$4,$5*
1,1,$1+$1,$6,$7*
1,1,$1+$1,$8,$9*
0 Add four rect primitives between the rounded corners*
20,1,$1+$1,$2,$3,$4,$5,0*
20,1,$1+$1,$4,$5,$6,$7,0*
20,1,$1+$1,$6,$7,$8,$9,0*
20,1,$1+$1,$8,$9,$2,$3,0*%
G04 Aperture macros list end*
%TA.AperFunction,ComponentPad*%
%ADD10C,2.200000*%
%TD*%
%TA.AperFunction,ComponentPad*%
%ADD11RoundRect,0.250000X0.550000X0.550000X-0.550000X0.550000X-0.550000X-0.550000X0.550000X-0.550000X0*%
%TD*%
%TA.AperFunction,ComponentPad*%
%ADD12C,1.600000*%
%TD*%
%TA.AperFunction,SMDPad,CuDef*%
%ADD13RoundRect,0.152400X1.063600X0.609600X-1.063600X0.609600X-1.063600X-0.609600X1.063600X-0.609600X0*%
%TD*%
%TA.AperFunction,ComponentPad*%
%ADD14C,1.524000*%
%TD*%
%TA.AperFunction,SMDPad,CuDef*%
%ADD15RoundRect,0.152400X-1.063600X-0.609600X1.063600X-0.609600X1.063600X0.609600X-1.063600X0.609600X0*%
%TD*%
%TA.AperFunction,ComponentPad*%
%ADD16R,2.000000X2.000000*%
%TD*%
%TA.AperFunction,ComponentPad*%
%ADD17C,2.000000*%
%TD*%
%TA.AperFunction,ComponentPad*%
%ADD18R,3.200000X2.000000*%
%TD*%
%TA.AperFunction,ViaPad*%
%ADD19C,0.600000*%
%TD*%
%TA.AperFunction,Conductor*%
%ADD20C,0.200000*%
%TD*%
G04 APERTURE END LIST*
D10*
%TO.P,SW15,1,1*%
%TO.N,COL5*%
X187452000Y-122936000D03*
%TO.P,SW15,2,2*%
%TO.N,Net-(D15-A)*%
X181102000Y-125476000D03*
%TD*%
%TO.P,SW14,1,1*%
%TO.N,COL4*%
X168402000Y-122936000D03*
%TO.P,SW14,2,2*%
%TO.N,Net-(D14-A)*%
X162052000Y-125476000D03*
%TD*%
%TO.P,SW13,1,1*%
%TO.N,COL3*%
X149352000Y-122936000D03*
%TO.P,SW13,2,2*%
%TO.N,Net-(D13-A)*%
X143002000Y-125476000D03*
%TD*%
%TO.P,SW12,1,1*%
%TO.N,COL2*%
X130302000Y-122936000D03*
%TO.P,SW12,2,2*%
%TO.N,Net-(D12-A)*%
X123952000Y-125476000D03*
%TD*%
%TO.P,SW11,1,1*%
%TO.N,COL1*%
X111252000Y-122936000D03*
%TO.P,SW11,2,2*%
%TO.N,Net-(D11-A)*%
X104902000Y-125476000D03*
%TD*%
%TO.P,SW10,1,1*%
%TO.N,COL5*%
X187452000Y-103886000D03*
%TO.P,SW10,2,2*%
%TO.N,Net-(D10-A)*%
X181102000Y-106426000D03*
%TD*%
%TO.P,SW9,1,1*%
%TO.N,COL4*%
X168402000Y-103886000D03*
%TO.P,SW9,2,2*%
%TO.N,Net-(D9-A)*%
X162052000Y-106426000D03*
%TD*%
%TO.P,SW8,1,1*%
%TO.N,COL3*%
X149352000Y-103886000D03*
%TO.P,SW8,2,2*%
%TO.N,Net-(D8-A)*%
X143002000Y-106426000D03*
%TD*%
%TO.P,SW7,1,1*%
%TO.N,COL2*%
X130302000Y-103886000D03*
%TO.P,SW7,2,2*%
%TO.N,Net-(D7-A)*%
X123952000Y-106426000D03*
%TD*%
%TO.P,SW6,1,1*%
%TO.N,COL1*%
X111252000Y-103886000D03*
%TO.P,SW6,2,2*%
%TO.N,Net-(D6-A)*%
X104902000Y-106426000D03*
%TD*%
%TO.P,SW5,1,1*%
%TO.N,COL5*%
X187452000Y-84836000D03*
%TO.P,SW5,2,2*%
%TO.N,Net-(D5-A)*%
X181102000Y-87376000D03*
%TD*%
%TO.P,SW4,1,1*%
%TO.N,COL4*%
X168402000Y-84836000D03*
%TO.P,SW4,2,2*%
%TO.N,Net-(D4-A)*%
X162052000Y-87376000D03*
%TD*%
%TO.P,SW3,1,1*%
%TO.N,COL3*%
X149352000Y-84836000D03*
%TO.P,SW3,2,2*%
%TO.N,Net-(D3-A)*%
X143002000Y-87376000D03*
%TD*%
%TO.P,SW2,1,1*%
%TO.N,COL2*%
X130302000Y-84836000D03*
%TO.P,SW2,2,2*%
%TO.N,Net-(D2-A)*%
X123952000Y-87376000D03*
%TD*%
%TO.P,SW1,1,1*%
%TO.N,COL1*%
X111252000Y-84836000D03*
%TO.P,SW1,2,2*%
%TO.N,Net-(D1-A)*%
X104902000Y-87376000D03*
%TD*%
D11*
%TO.P,D14,1,K*%
%TO.N,ROW3*%
X169672000Y-118844000D03*
D12*
%TO.P,D14,2,A*%
%TO.N,Net-(D14-A)*%
X162052000Y-118844000D03*
%TD*%
D11*
%TO.P,D8,1,K*%
%TO.N,ROW2*%
X150618000Y-99540000D03*
D12*
%TO.P,D8,2,A*%
%TO.N,Net-(D8-A)*%
X142998000Y-99540000D03*
%TD*%
D11*
%TO.P,D10,1,K*%
%TO.N,ROW2*%
X188718000Y-99540000D03*
D12*
%TO.P,D10,2,A*%
%TO.N,Net-(D10-A)*%
X181098000Y-99540000D03*
%TD*%
D11*
%TO.P,D1,1,K*%
%TO.N,ROW1*%
X112518000Y-80490000D03*
D12*
%TO.P,D1,2,A*%
%TO.N,Net-(D1-A)*%
X104898000Y-80490000D03*
%TD*%
D13*
%TO.P,U1,1,GPIO26/ADC0/A0*%
%TO.N,COL1*%
X138353000Y-58646000D03*
D14*
X139188000Y-58646000D03*
D13*
%TO.P,U1,2,GPIO27/ADC1/A1*%
%TO.N,COL2*%
X138353000Y-61186000D03*
D14*
X139188000Y-61186000D03*
D13*
%TO.P,U1,3,GPIO28/ADC2/A2*%
%TO.N,COL3*%
X138353000Y-63726000D03*
D14*
X139188000Y-63726000D03*
D13*
%TO.P,U1,4,GPIO29/ADC3/A3*%
%TO.N,COL4*%
X138353000Y-66266000D03*
D14*
X139188000Y-66266000D03*
D13*
%TO.P,U1,5,GPIO6/SDA*%
%TO.N,COL5*%
X138353000Y-68806000D03*
D14*
X139188000Y-68806000D03*
D13*
%TO.P,U1,6,GPIO7/SCL*%
%TO.N,E1*%
X138353000Y-71346000D03*
D14*
X139188000Y-71346000D03*
D13*
%TO.P,U1,7,GPIO0/TX*%
%TO.N,E2*%
X138353000Y-73886000D03*
D14*
X139188000Y-73886000D03*
%TO.P,U1,8,GPIO1/RX*%
%TO.N,E3*%
X154428000Y-73886000D03*
D15*
X155263000Y-73886000D03*
D14*
%TO.P,U1,9,GPIO2/SCK*%
%TO.N,ROW1*%
X154428000Y-71346000D03*
D15*
X155263000Y-71346000D03*
D14*
%TO.P,U1,10,GPIO4/MISO*%
%TO.N,ROW2*%
X154428000Y-68806000D03*
D15*
X155263000Y-68806000D03*
D14*
%TO.P,U1,11,GPIO3/MOSI*%
%TO.N,ROW3*%
X154428000Y-66266000D03*
D15*
X155263000Y-66266000D03*
D14*
%TO.P,U1,12,3V3*%
%TO.N,unconnected-(U1-3V3-Pad12)*%
X154428000Y-63726000D03*
D15*
X155263000Y-63726000D03*
D14*
%TO.P,U1,13,GND*%
%TO.N,GND*%
X154428000Y-61186000D03*
D15*
X155263000Y-61186000D03*
D14*
%TO.P,U1,14,VBUS*%
%TO.N,unconnected-(U1-VBUS-Pad14)*%
X154428000Y-58646000D03*
D15*
X155263000Y-58646000D03*
%TD*%
D11*
%TO.P,D4,1,K*%
%TO.N,ROW1*%
X169668000Y-80430000D03*
D12*
%TO.P,D4,2,A*%
%TO.N,Net-(D4-A)*%
X162048000Y-80430000D03*
%TD*%
D11*
%TO.P,D9,1,K*%
%TO.N,ROW2*%
X169668000Y-99450000D03*
D12*
%TO.P,D9,2,A*%
%TO.N,Net-(D9-A)*%
X162048000Y-99450000D03*
%TD*%
D11*
%TO.P,D6,1,K*%
%TO.N,ROW2*%
X112518000Y-99540000D03*
D12*
%TO.P,D6,2,A*%
%TO.N,Net-(D6-A)*%
X104898000Y-99540000D03*
%TD*%
D11*
%TO.P,D3,1,K*%
%TO.N,ROW1*%
X150618000Y-80490000D03*
D12*
%TO.P,D3,2,A*%
%TO.N,Net-(D3-A)*%
X142998000Y-80490000D03*
%TD*%
D11*
%TO.P,D5,1,K*%
%TO.N,ROW1*%
X188718000Y-80490000D03*
D12*
%TO.P,D5,2,A*%
%TO.N,Net-(D5-A)*%
X181098000Y-80490000D03*
%TD*%
D11*
%TO.P,D2,1,K*%
%TO.N,ROW1*%
X131568000Y-80520000D03*
D12*
%TO.P,D2,2,A*%
%TO.N,Net-(D2-A)*%
X123948000Y-80520000D03*
%TD*%
D11*
%TO.P,D15,1,K*%
%TO.N,ROW3*%
X188722000Y-118844000D03*
D12*
%TO.P,D15,2,A*%
%TO.N,Net-(D15-A)*%
X181102000Y-118844000D03*
%TD*%
D11*
%TO.P,D12,1,K*%
%TO.N,ROW3*%
X131572000Y-118620000D03*
D12*
%TO.P,D12,2,A*%
%TO.N,Net-(D12-A)*%
X123952000Y-118620000D03*
%TD*%
D11*
%TO.P,D7,1,K*%
%TO.N,ROW2*%
X131568000Y-99540000D03*
D12*
%TO.P,D7,2,A*%
%TO.N,Net-(D7-A)*%
X123948000Y-99540000D03*
%TD*%
D11*
%TO.P,D13,1,K*%
%TO.N,ROW3*%
X150622000Y-118844000D03*
D12*
%TO.P,D13,2,A*%
%TO.N,Net-(D13-A)*%
X143002000Y-118844000D03*
%TD*%
D16*
%TO.P,SW16,A,A*%
%TO.N,E1*%
X177662000Y-63246000D03*
D17*
%TO.P,SW16,B,B*%
%TO.N,E2*%
X177662000Y-68246000D03*
%TO.P,SW16,C,C*%
%TO.N,GND*%
X177662000Y-65746000D03*
D18*
%TO.P,SW16,MP*%
%TO.N,N/C*%
X185162000Y-60146000D03*
X185162000Y-71346000D03*
D17*
%TO.P,SW16,S1,S1*%
%TO.N,E3*%
X192162000Y-68246000D03*
%TO.P,SW16,S2,S2*%
%TO.N,GND*%
X192162000Y-63246000D03*
%TD*%
D11*
%TO.P,D11,1,K*%
%TO.N,ROW3*%
X112522000Y-118590000D03*
D12*
%TO.P,D11,2,A*%
%TO.N,Net-(D11-A)*%
X104902000Y-118590000D03*
%TD*%
D19*
%TO.N,COL1*%
X113079500Y-62773000D03*
%TO.N,COL4*%
X165873500Y-68843000D03*
%TO.N,COL5*%
X141746300Y-79412000D03*
%TD*%
D20*
%TO.N,ROW1*%
X151819600Y-79288400D02*
X168526400Y-79288400D01*
X169668000Y-80430000D02*
X170761200Y-79336800D01*
X133297600Y-78790400D02*
X148918400Y-78790400D01*
X148918400Y-78790400D02*
X150618000Y-80490000D01*
X112518000Y-80490000D02*
X113630600Y-79377400D01*
X168526400Y-79288400D02*
X169668000Y-80430000D01*
X130425400Y-79377400D02*
X131568000Y-80520000D01*
X113630600Y-79377400D02*
X130425400Y-79377400D01*
X150618000Y-80490000D02*
X151819600Y-79288400D01*
X187564800Y-79336800D02*
X188718000Y-80490000D01*
X155263000Y-71346000D02*
X154428000Y-71346000D01*
X131568000Y-80520000D02*
X133297600Y-78790400D01*
X170761200Y-79336800D02*
X187564800Y-79336800D01*
%TO.N,ROW2*%
X149474500Y-100683500D02*
X150618000Y-99540000D01*
X169668000Y-99450000D02*
X168565400Y-100552600D01*
X188718000Y-99540000D02*
X187616300Y-100641700D01*
X187616300Y-100641700D02*
X170859700Y-100641700D01*
X155263000Y-68806000D02*
X154428000Y-68806000D01*
X130453000Y-98425000D02*
X131568000Y-99540000D01*
X168565400Y-100552600D02*
X151630600Y-100552600D01*
X151630600Y-100552600D02*
X150618000Y-99540000D01*
X170859700Y-100641700D02*
X169668000Y-99450000D01*
X113633000Y-98425000D02*
X130453000Y-98425000D01*
X132711500Y-100683500D02*
X149474500Y-100683500D01*
X112518000Y-99540000D02*
X113633000Y-98425000D01*
X131568000Y-99540000D02*
X132711500Y-100683500D01*
%TO.N,ROW3*%
X131572000Y-118620000D02*
X132468500Y-117723500D01*
X154428000Y-66266000D02*
X155263000Y-66266000D01*
X150622000Y-117723500D02*
X150622000Y-118844000D01*
X187620300Y-117742300D02*
X170773700Y-117742300D01*
X168551500Y-117723500D02*
X169672000Y-118844000D01*
X130435600Y-117483600D02*
X131572000Y-118620000D01*
X112522000Y-118590000D02*
X113628400Y-117483600D01*
X113628400Y-117483600D02*
X130435600Y-117483600D01*
X188722000Y-118844000D02*
X187620300Y-117742300D01*
X170773700Y-117742300D02*
X169672000Y-118844000D01*
X150622000Y-117723500D02*
X168551500Y-117723500D01*
X132468500Y-117723500D02*
X150622000Y-117723500D01*
%TO.N,COL1*%
X139188000Y-58646000D02*
X138353000Y-58646000D01*
X134226000Y-62773000D02*
X138353000Y-58646000D01*
X113079500Y-62773000D02*
X134226000Y-62773000D01*
%TO.N,COL2*%
X139188000Y-61186000D02*
X138353000Y-61186000D01*
%TO.N,COL3*%
X139188000Y-63726000D02*
X138353000Y-63726000D01*
%TO.N,COL4*%
X140290400Y-67368400D02*
X164398900Y-67368400D01*
X138353000Y-66266000D02*
X139188000Y-66266000D01*
X164398900Y-67368400D02*
X165873500Y-68843000D01*
X139188000Y-66266000D02*
X140290400Y-67368400D01*
%TO.N,COL5*%
X142981300Y-82071200D02*
X141746300Y-80836200D01*
X138353000Y-68806000D02*
X139188000Y-68806000D01*
X141746300Y-80836200D02*
X141746300Y-79412000D01*
X187452000Y-84836000D02*
X184687200Y-82071200D01*
X184687200Y-82071200D02*
X142981300Y-82071200D01*
%TO.N,GND*%
X192162000Y-63246000D02*
X189662000Y-65746000D01*
X154428000Y-61186000D02*
X155263000Y-61186000D01*
X155263000Y-61186000D02*
X155524700Y-61447700D01*
X155524700Y-61447700D02*
X190363700Y-61447700D01*
X190363700Y-61447700D02*
X192162000Y-63246000D01*
X189662000Y-65746000D02*
X177662000Y-65746000D01*
%TO.N,E1*%
X140458000Y-70076000D02*
X169530300Y-70076000D01*
X177662000Y-63246000D02*
X176360300Y-63246000D01*
X169530300Y-70076000D02*
X176360300Y-63246000D01*
X139188000Y-71346000D02*
X140458000Y-70076000D01*
X138353000Y-71346000D02*
X139188000Y-71346000D01*
%TO.N,E3*%
X186522000Y-73886000D02*
X155263000Y-73886000D01*
X154428000Y-73886000D02*
X155263000Y-73886000D01*
X192162000Y-68246000D02*
X186522000Y-73886000D01*
%TO.N,E2*%
X139188000Y-73886000D02*
X138353000Y-73886000D01*
X140506500Y-72567500D02*
X139188000Y-73886000D01*
X177662000Y-68246000D02*
X173340600Y-72567400D01*
X140506500Y-72567400D02*
X140506500Y-72567500D01*
X173340600Y-72567400D02*
X140506500Y-72567400D01*
%TO.N,unconnected-(U1-3V3-Pad12)*%
X155263000Y-63726000D02*
X154428000Y-63726000D01*
%TO.N,unconnected-(U1-VBUS-Pad14)*%
X155263000Y-58646000D02*
X154428000Y-58646000D01*
%TD*%
M02*
