%TF.GenerationSoftware,KiCad,Pcbnew,9.0.8*%
%TF.CreationDate,2026-03-31T20:14:32+02:00*%
%TF.ProjectId,NeowPad,4e656f77-5061-4642-9e6b-696361645f70,rev?*%
%TF.SameCoordinates,Original*%
%TF.FileFunction,Soldermask,Top*%
%TF.FilePolarity,Negative*%
%FSLAX46Y46*%
G04 Gerber Fmt 4.6, Leading zero omitted, Abs format (unit mm)*
G04 Created by KiCad (PCBNEW 9.0.8) date 2026-03-31 20:14:32*
%MOMM*%
%LPD*%
G01*
G04 APERTURE LIST*
G04 Aperture macros list*
%AMRoundRect*
0 Rectangle with rounded corners*
0 $1 Rounding radius*
0 $2 $3 $4 $5 $6 $7 $8 $9 X,Y pos of 4 corners*
0 Add a 4 corners polygon primitive as box body*
4,1,4,$2,$3,$4,$5,$6,$7,$8,$9,$2,$3,0*
0 Add four circle primitives for the rounded corners*
1,1,$1+$1,$2,$3*
1,1,$1+$1,$4,$5*
1,1,$1+$1,$6,$7*
1,1,$1+$1,$8,$9*
0 Add four rect primitives between the rounded corners*
20,1,$1+$1,$2,$3,$4,$5,0*
20,1,$1+$1,$4,$5,$6,$7,0*
20,1,$1+$1,$6,$7,$8,$9,0*
20,1,$1+$1,$8,$9,$2,$3,0*%
G04 Aperture macros list end*
%ADD10C,1.700000*%
%ADD11C,4.000000*%
%ADD12C,2.200000*%
%ADD13RoundRect,0.250000X0.550000X0.550000X-0.550000X0.550000X-0.550000X-0.550000X0.550000X-0.550000X0*%
%ADD14C,1.600000*%
%ADD15RoundRect,0.152400X1.063600X0.609600X-1.063600X0.609600X-1.063600X-0.609600X1.063600X-0.609600X0*%
%ADD16C,1.524000*%
%ADD17RoundRect,0.152400X-1.063600X-0.609600X1.063600X-0.609600X1.063600X0.609600X-1.063600X0.609600X0*%
%ADD18R,2.000000X2.000000*%
%ADD19C,2.000000*%
%ADD20R,3.200000X2.000000*%
G04 APERTURE END LIST*
D10*
%TO.C,SW15*%
X179832000Y-128016000D03*
D11*
X184912000Y-128016000D03*
D10*
X189992000Y-128016000D03*
D12*
X187452000Y-122936000D03*
X181102000Y-125476000D03*
%TD*%
D10*
%TO.C,SW14*%
X160782000Y-128016000D03*
D11*
X165862000Y-128016000D03*
D10*
X170942000Y-128016000D03*
D12*
X168402000Y-122936000D03*
X162052000Y-125476000D03*
%TD*%
D10*
%TO.C,SW13*%
X141732000Y-128016000D03*
D11*
X146812000Y-128016000D03*
D10*
X151892000Y-128016000D03*
D12*
X149352000Y-122936000D03*
X143002000Y-125476000D03*
%TD*%
D10*
%TO.C,SW12*%
X122682000Y-128016000D03*
D11*
X127762000Y-128016000D03*
D10*
X132842000Y-128016000D03*
D12*
X130302000Y-122936000D03*
X123952000Y-125476000D03*
%TD*%
D10*
%TO.C,SW11*%
X103632000Y-128016000D03*
D11*
X108712000Y-128016000D03*
D10*
X113792000Y-128016000D03*
D12*
X111252000Y-122936000D03*
X104902000Y-125476000D03*
%TD*%
D10*
%TO.C,SW10*%
X179832000Y-108966000D03*
D11*
X184912000Y-108966000D03*
D10*
X189992000Y-108966000D03*
D12*
X187452000Y-103886000D03*
X181102000Y-106426000D03*
%TD*%
D10*
%TO.C,SW9*%
X160782000Y-108966000D03*
D11*
X165862000Y-108966000D03*
D10*
X170942000Y-108966000D03*
D12*
X168402000Y-103886000D03*
X162052000Y-106426000D03*
%TD*%
D10*
%TO.C,SW8*%
X141732000Y-108966000D03*
D11*
X146812000Y-108966000D03*
D10*
X151892000Y-108966000D03*
D12*
X149352000Y-103886000D03*
X143002000Y-106426000D03*
%TD*%
D10*
%TO.C,SW7*%
X122682000Y-108966000D03*
D11*
X127762000Y-108966000D03*
D10*
X132842000Y-108966000D03*
D12*
X130302000Y-103886000D03*
X123952000Y-106426000D03*
%TD*%
D10*
%TO.C,SW6*%
X103632000Y-108966000D03*
D11*
X108712000Y-108966000D03*
D10*
X113792000Y-108966000D03*
D12*
X111252000Y-103886000D03*
X104902000Y-106426000D03*
%TD*%
D10*
%TO.C,SW5*%
X179832000Y-89916000D03*
D11*
X184912000Y-89916000D03*
D10*
X189992000Y-89916000D03*
D12*
X187452000Y-84836000D03*
X181102000Y-87376000D03*
%TD*%
D10*
%TO.C,SW4*%
X160782000Y-89916000D03*
D11*
X165862000Y-89916000D03*
D10*
X170942000Y-89916000D03*
D12*
X168402000Y-84836000D03*
X162052000Y-87376000D03*
%TD*%
D10*
%TO.C,SW3*%
X141732000Y-89916000D03*
D11*
X146812000Y-89916000D03*
D10*
X151892000Y-89916000D03*
D12*
X149352000Y-84836000D03*
X143002000Y-87376000D03*
%TD*%
D10*
%TO.C,SW2*%
X122682000Y-89916000D03*
D11*
X127762000Y-89916000D03*
D10*
X132842000Y-89916000D03*
D12*
X130302000Y-84836000D03*
X123952000Y-87376000D03*
%TD*%
D10*
%TO.C,SW1*%
X103632000Y-89916000D03*
D11*
X108712000Y-89916000D03*
D10*
X113792000Y-89916000D03*
D12*
X111252000Y-84836000D03*
X104902000Y-87376000D03*
%TD*%
D13*
%TO.C,D14*%
X169672000Y-118844000D03*
D14*
X162052000Y-118844000D03*
%TD*%
D13*
%TO.C,D8*%
X150618000Y-99540000D03*
D14*
X142998000Y-99540000D03*
%TD*%
D13*
%TO.C,D10*%
X188718000Y-99540000D03*
D14*
X181098000Y-99540000D03*
%TD*%
D13*
%TO.C,D1*%
X112518000Y-80490000D03*
D14*
X104898000Y-80490000D03*
%TD*%
D15*
%TO.C,U1*%
X138353000Y-58646000D03*
D16*
X139188000Y-58646000D03*
D15*
X138353000Y-61186000D03*
D16*
X139188000Y-61186000D03*
D15*
X138353000Y-63726000D03*
D16*
X139188000Y-63726000D03*
D15*
X138353000Y-66266000D03*
D16*
X139188000Y-66266000D03*
D15*
X138353000Y-68806000D03*
D16*
X139188000Y-68806000D03*
D15*
X138353000Y-71346000D03*
D16*
X139188000Y-71346000D03*
D15*
X138353000Y-73886000D03*
D16*
X139188000Y-73886000D03*
X154428000Y-73886000D03*
D17*
X155263000Y-73886000D03*
D16*
X154428000Y-71346000D03*
D17*
X155263000Y-71346000D03*
D16*
X154428000Y-68806000D03*
D17*
X155263000Y-68806000D03*
D16*
X154428000Y-66266000D03*
D17*
X155263000Y-66266000D03*
D16*
X154428000Y-63726000D03*
D17*
X155263000Y-63726000D03*
D16*
X154428000Y-61186000D03*
D17*
X155263000Y-61186000D03*
D16*
X154428000Y-58646000D03*
D17*
X155263000Y-58646000D03*
%TD*%
D13*
%TO.C,D4*%
X169668000Y-80430000D03*
D14*
X162048000Y-80430000D03*
%TD*%
D13*
%TO.C,D9*%
X169668000Y-99450000D03*
D14*
X162048000Y-99450000D03*
%TD*%
D13*
%TO.C,D6*%
X112518000Y-99540000D03*
D14*
X104898000Y-99540000D03*
%TD*%
D13*
%TO.C,D3*%
X150618000Y-80490000D03*
D14*
X142998000Y-80490000D03*
%TD*%
D13*
%TO.C,D5*%
X188718000Y-80490000D03*
D14*
X181098000Y-80490000D03*
%TD*%
D13*
%TO.C,D2*%
X131568000Y-80520000D03*
D14*
X123948000Y-80520000D03*
%TD*%
D13*
%TO.C,D15*%
X188722000Y-118844000D03*
D14*
X181102000Y-118844000D03*
%TD*%
D13*
%TO.C,D12*%
X131572000Y-118620000D03*
D14*
X123952000Y-118620000D03*
%TD*%
D13*
%TO.C,D7*%
X131568000Y-99540000D03*
D14*
X123948000Y-99540000D03*
%TD*%
D13*
%TO.C,D13*%
X150622000Y-118844000D03*
D14*
X143002000Y-118844000D03*
%TD*%
D18*
%TO.C,SW16*%
X177662000Y-63246000D03*
D19*
X177662000Y-68246000D03*
X177662000Y-65746000D03*
D20*
X185162000Y-60146000D03*
X185162000Y-71346000D03*
D19*
X192162000Y-68246000D03*
X192162000Y-63246000D03*
%TD*%
D13*
%TO.C,D11*%
X112522000Y-118590000D03*
D14*
X104902000Y-118590000D03*
%TD*%
M02*
