%TF.GenerationSoftware,KiCad,Pcbnew,9.0.8*%
%TF.CreationDate,2026-03-31T20:14:35+02:00*%
%TF.ProjectId,NeowPad,4e656f77-5061-4642-9e6b-696361645f70,rev?*%
%TF.SameCoordinates,Original*%
%TF.FileFunction,NonPlated,1,2,NPTH,Drill*%
%TF.FilePolarity,Positive*%
%FSLAX46Y46*%
G04 Gerber Fmt 4.6, Leading zero omitted, Abs format (unit mm)*
G04 Created by KiCad (PCBNEW 9.0.8) date 2026-03-31 20:14:35*
%MOMM*%
%LPD*%
G01*
G04 APERTURE LIST*
%TA.AperFunction,ComponentDrill*%
%ADD10C,1.700000*%
%TD*%
%TA.AperFunction,ComponentDrill*%
%ADD11C,4.000000*%
%TD*%
G04 APERTURE END LIST*
D10*
%TO.C,SW1*%
X103632000Y-89916000D03*
%TO.C,SW6*%
X103632000Y-108966000D03*
%TO.C,SW11*%
X103632000Y-128016000D03*
%TO.C,SW1*%
X113792000Y-89916000D03*
%TO.C,SW6*%
X113792000Y-108966000D03*
%TO.C,SW11*%
X113792000Y-128016000D03*
%TO.C,SW2*%
X122682000Y-89916000D03*
%TO.C,SW7*%
X122682000Y-108966000D03*
%TO.C,SW12*%
X122682000Y-128016000D03*
%TO.C,SW2*%
X132842000Y-89916000D03*
%TO.C,SW7*%
X132842000Y-108966000D03*
%TO.C,SW12*%
X132842000Y-128016000D03*
%TO.C,SW3*%
X141732000Y-89916000D03*
%TO.C,SW8*%
X141732000Y-108966000D03*
%TO.C,SW13*%
X141732000Y-128016000D03*
%TO.C,SW3*%
X151892000Y-89916000D03*
%TO.C,SW8*%
X151892000Y-108966000D03*
%TO.C,SW13*%
X151892000Y-128016000D03*
%TO.C,SW4*%
X160782000Y-89916000D03*
%TO.C,SW9*%
X160782000Y-108966000D03*
%TO.C,SW14*%
X160782000Y-128016000D03*
%TO.C,SW4*%
X170942000Y-89916000D03*
%TO.C,SW9*%
X170942000Y-108966000D03*
%TO.C,SW14*%
X170942000Y-128016000D03*
%TO.C,SW5*%
X179832000Y-89916000D03*
%TO.C,SW10*%
X179832000Y-108966000D03*
%TO.C,SW15*%
X179832000Y-128016000D03*
%TO.C,SW5*%
X189992000Y-89916000D03*
%TO.C,SW10*%
X189992000Y-108966000D03*
%TO.C,SW15*%
X189992000Y-128016000D03*
D11*
%TO.C,SW1*%
X108712000Y-89916000D03*
%TO.C,SW6*%
X108712000Y-108966000D03*
%TO.C,SW11*%
X108712000Y-128016000D03*
%TO.C,SW2*%
X127762000Y-89916000D03*
%TO.C,SW7*%
X127762000Y-108966000D03*
%TO.C,SW12*%
X127762000Y-128016000D03*
%TO.C,SW3*%
X146812000Y-89916000D03*
%TO.C,SW8*%
X146812000Y-108966000D03*
%TO.C,SW13*%
X146812000Y-128016000D03*
%TO.C,SW4*%
X165862000Y-89916000D03*
%TO.C,SW9*%
X165862000Y-108966000D03*
%TO.C,SW14*%
X165862000Y-128016000D03*
%TO.C,SW5*%
X184912000Y-89916000D03*
%TO.C,SW10*%
X184912000Y-108966000D03*
%TO.C,SW15*%
X184912000Y-128016000D03*
M02*
